HIERARCHY
ROOT joint_Root
{
  OFFSET 0 0 0
  CHANNELS 6 Xposition Yposition Zposition Zrotation Xrotation Yrotation
  JOINT Hips
  {
    OFFSET 0 93.9241 -3
    CHANNELS 6 Xposition Yposition Zposition Zrotation Xrotation Yrotation
    JOINT Spine
    {
      OFFSET 15.7357 0 0
      CHANNELS 6 Xposition Yposition Zposition Zrotation Xrotation Yrotation
      JOINT Chest
      {
        OFFSET 8.98455 -0.406207 0
        CHANNELS 6 Xposition Yposition Zposition Zrotation Xrotation Yrotation
        JOINT Neck
        {
          OFFSET 16.3773 0 0
          CHANNELS 6 Xposition Yposition Zposition Zrotation Xrotation Yrotation
          JOINT Head
          {
            OFFSET 6.45672 0 0
            CHANNELS 6 Xposition Yposition Zposition Zrotation Xrotation Yrotation
            End Site
            {
              OFFSET 0 0 0
            }
          }
        }
        JOINT Shoulder_L
        {
          OFFSET 12.9942 -0.242716 4.98039
          CHANNELS 6 Xposition Yposition Zposition Zrotation Xrotation Yrotation
          JOINT UpperArm_L
          {
            OFFSET 5.34809 0 0
            CHANNELS 6 Xposition Yposition Zposition Zrotation Xrotation Yrotation
            JOINT LowerArm_L
            {
              OFFSET 24.3286 1.87007e-05 0
              CHANNELS 6 Xposition Yposition Zposition Zrotation Xrotation Yrotation
              JOINT Hand_L
              {
                OFFSET 22.2916 0 0
                CHANNELS 6 Xposition Yposition Zposition Zrotation Xrotation Yrotation
                End Site
                {
                  OFFSET 0 0 0
                }
              }
            }
          }
        }
        JOINT Shoulder_R
        {
          OFFSET 12.9945 -0.242716 -4.98039
          CHANNELS 6 Xposition Yposition Zposition Zrotation Xrotation Yrotation
          JOINT UpperArm_R
          {
            OFFSET -5.34813 0 0
            CHANNELS 6 Xposition Yposition Zposition Zrotation Xrotation Yrotation
            JOINT LowerArm_R
            {
              OFFSET -24.3289 0.000322201 0
              CHANNELS 6 Xposition Yposition Zposition Zrotation Xrotation Yrotation
              JOINT Hand_R
              {
                OFFSET -22.2915 -0.000108084 0
                CHANNELS 6 Xposition Yposition Zposition Zrotation Xrotation Yrotation
                End Site
                {
                  OFFSET 0 0 0
                }
              }
            }
          }
        }
      }
    }
    JOINT UpperLeg_L
    {
      OFFSET -2.19248 -6.46944 0
      CHANNELS 6 Xposition Yposition Zposition Zrotation Xrotation Yrotation
      JOINT LowerLeg_L
      {
        OFFSET 39.0811 0 -1.23785e-05
        CHANNELS 6 Xposition Yposition Zposition Zrotation Xrotation Yrotation
        JOINT Foot_L
        {
          OFFSET 40.9854 0 -1.26872e-05
          CHANNELS 6 Xposition Yposition Zposition Zrotation Xrotation Yrotation
          JOINT Toes_L
          {
            OFFSET 11.7543 0 0
            CHANNELS 6 Xposition Yposition Zposition Zrotation Xrotation Yrotation
            End Site
            {
              OFFSET 0 0 0
            }
          }
        }
      }
    }
    JOINT UpperLeg_R
    {
      OFFSET -2.19251 6.46944 0
      CHANNELS 6 Xposition Yposition Zposition Zrotation Xrotation Yrotation
      JOINT LowerLeg_R
      {
        OFFSET -39.0811 -0.00228153 -0.0401928
        CHANNELS 6 Xposition Yposition Zposition Zrotation Xrotation Yrotation
        JOINT Foot_R
        {
          OFFSET -40.9854 0 0
          CHANNELS 6 Xposition Yposition Zposition Zrotation Xrotation Yrotation
          JOINT Toes_R
          {
            OFFSET -11.7543 0 0
            CHANNELS 6 Xposition Yposition Zposition Zrotation Xrotation Yrotation
            End Site
            {
              OFFSET 0 0 0
            }
          }
        }
      }
    }
  }
}
MOTION
Frames:	5
Frame Time:	0.0333333
0 0 0 0 0 -0 0.205258 83.9272 5.95276 89.4737 14.9345 -4.97406 15.7357 5.1072e-06 -5.51765e-07 -14.1837 86.4816 14.6246 8.98455 -0.406207 -4.3199e-07 -9.50444 -6.86202 0.314153 16.3773 -1.3905e-06 -6.99897e-07 -12.4649 -5.56085 -3.5593 6.45672 -1.25837e-06 -1.02172e-07 14.2777 -5.83215 -0.775526 12.9942 -0.242716 4.98039 -89.0005 -12.9892 -100.562 5.34809 -7.22636e-06 -6.2814e-07 -60.1062 -22.4146 -120.703 24.3286 1.87007e-05 4.90208e-06 -11.4156 -11.1017 -46.3544 22.2916 -9.88446e-07 4.63217e-06 33.6885 5.31325 -0.304983 12.9945 -0.242716 -4.98039 92.4271 -7.99428 -88.0524 -5.34813 -1.25947e-06 -3.79883e-06 -68.0322 -35.2254 -125.459 -24.3289 0.000322201 -8.65921e-06 -8.2808 -6.15032 -53.6381 -22.2915 -0.000108084 -4.47941e-06 56.2068 5.3669 -1.89064 -2.19248 -6.46944 -1.22534e-07 -171.185 -21.7861 4.36906 39.0811 -6.73843e-06 -1.23785e-05 -0.147981 0.297453 32.4161 40.9854 -6.48686e-06 -1.26872e-05 -11.0917 -0.234431 -88.3288 11.7543 -2.30145e-07 3.05095e-06 0.0271924 -0.0302873 -16.8741 -2.19251 6.46944 -1.45247e-06 -178.933 13.2508 134.353 -39.0811 -0.00228153 -0.0401928 -0.00913643 -0.0104541 27.4097 -40.9854 7.72618e-06 5.99936e-06 2.37597 -10.6218 -44.9184 -11.7543 -5.6619e-06 -5.58687e-06 0.110791 -0.116423 -17.4686 
0 0 0 0 0 -0 -0.520782 83.2149 8.76482 89.7598 18.9795 -5.9899 15.7357 5.1072e-06 -5.51765e-07 -15.5704 86.3139 15.8237 8.98455 -0.406207 -4.3199e-07 -9.77438 -7.11096 -0.100057 16.3773 -1.3905e-06 -6.99897e-07 -14.153 -6.58196 -3.726 6.45672 -1.25837e-06 -1.02172e-07 14.1902 -7.65375 -0.718351 12.9942 -0.242716 4.98039 -89.2993 -12.6666 -101.808 5.34809 -7.22636e-06 -6.2814e-07 -59.9787 -17.0179 -120.409 24.3286 1.87007e-05 4.90208e-06 -7.61881 -8.45953 -42.2665 22.2916 -9.88446e-07 4.63217e-06 33.3204 5.29545 0.197113 12.9945 -0.242716 -4.98039 91.907 -6.94806 -89.6119 -5.34813 -1.25947e-06 -3.79883e-06 -67.7631 -34.0465 -120.58 -24.3289 0.000322201 -8.65921e-06 -8.5224 -6.04257 -54.908 -22.2915 -0.000108084 -4.47941e-06 55.2403 5.36003 -1.68094 -2.19248 -6.46944 -1.22534e-07 -169.496 -18.841 5.14095 39.0811 -6.73843e-06 -1.23785e-05 -0.167118 0.341775 31.0288 40.9854 -6.48686e-06 -1.26872e-05 -12.4007 1.40366 -88.2773 11.7543 -2.30145e-07 3.05095e-06 0.0231963 -0.0258348 -16.8305 -2.19251 6.46944 -1.45247e-06 -179.729 15.455 132.254 -39.0811 -0.00228153 -0.0401928 0.0488044 -0.110825 29.2356 -40.9854 7.72618e-06 5.99936e-06 1.31706 -9.49425 -43.0188 -11.7543 -5.6619e-06 -5.58687e-06 0.131123 -0.138204 -17.6345 
0 0 0 0 0 -0 -1.40661 82.3725 11.9556 90.3281 23.0699 -7.03978 15.7357 5.1072e-06 -5.51765e-07 -18.1941 86.5795 18.0623 8.98455 -0.406207 -4.3199e-07 -9.94764 -6.4509 -0.826558 16.3773 -1.3905e-06 -6.99897e-07 -15.3557 -7.83299 -4.22111 6.45672 -1.25837e-06 -1.02172e-07 13.6576 -10.2386 -0.277703 12.9942 -0.242716 4.98039 -89.6304 -11.9189 -103.211 5.34809 -7.22636e-06 -6.2814e-07 -58.8326 -11.2022 -117.697 24.3286 1.87007e-05 4.90208e-06 -4.19515 -5.28651 -38.506 22.2916 -9.88446e-07 4.63217e-06 33.0457 5.23277 1.89233 12.9945 -0.242716 -4.98039 91.4906 -6.17603 -91.4043 -5.34813 -1.25947e-06 -3.79883e-06 -67.9297 -31.3865 -113.023 -24.3289 0.000322201 -8.65921e-06 -9.33376 -6.13089 -56.978 -22.2915 -0.000108084 -4.47941e-06 54.1707 5.35356 -1.48328 -2.19248 -6.46944 -1.22534e-07 -166.919 -17.6078 6.60925 39.0811 -6.73843e-06 -1.23785e-05 -0.169151 0.369781 28.7571 40.9854 -6.48686e-06 -1.26872e-05 -13.6686 4.78047 -87.3454 11.7543 -2.30145e-07 3.05095e-06 0.0217224 -0.0241826 -16.8141 -2.19251 6.46944 -1.45247e-06 -179.527 18.7526 128.708 -39.0811 -0.00228153 -0.0401928 0.0785224 -0.125953 36.6087 -40.9854 7.72618e-06 5.99936e-06 0.721067 -9.53457 -42.2618 -11.7543 -5.6619e-06 -5.58687e-06 -0.103474 0.0619992 -16.5736 
0 0 0 0 0 -0 -2.15 81.5239 15.3032 91.4527 27.1274 -6.52282 15.7357 5.1072e-06 -5.51765e-07 -13.9378 87.1569 13.1975 8.98455 -0.406207 -4.3199e-07 -9.19469 -5.38955 -1.9193 16.3773 -1.3905e-06 -6.99897e-07 -14.6692 -9.03137 -4.50239 6.45672 -1.25837e-06 -1.02172e-07 12.7283 -13.1893 -0.162427 12.9942 -0.242716 4.98039 -89.9083 -10.8547 -104.514 5.34809 -7.22636e-06 -6.2814e-07 -57.8748 -5.02624 -110.994 24.3286 1.87007e-05 4.90208e-06 -1.20063 -1.64765 -36.0571 22.2916 -9.88446e-07 4.63217e-06 31.314 5.14281 4.13105 12.9945 -0.242716 -4.98039 91.074 -5.51 -93.9552 -5.34813 -1.25947e-06 -3.79883e-06 -66.7305 -27.994 -101.716 -24.3289 0.000322201 -8.65921e-06 -12.9621 -8.06237 -58.6407 -22.2915 -0.000108084 -4.47941e-06 53.745 5.34545 -1.24261 -2.19248 -6.46944 -1.22534e-07 -163.956 -16.7028 10.6668 39.0811 -6.73843e-06 -1.23785e-05 -0.0952531 0.258176 24.8515 40.9854 -6.48686e-06 -1.26872e-05 -15.2588 8.46443 -85.2797 11.7543 -2.30145e-07 3.05095e-06 0.0547915 -0.0613875 -17.1771 -2.19251 6.46944 -1.45247e-06 179.986 22.5563 126.827 -39.0811 -0.00228153 -0.0401928 0.111931 -0.125053 46.3917 -40.9854 7.72618e-06 5.99936e-06 -0.053031 -9.48193 -49.3726 -11.7543 -5.6619e-06 -5.58687e-06 -0.257225 0.144019 -16.5746 
0 0 0 0 0 -0 -2.94089 81.1155 18.1806 92.4313 30.5285 -5.68465 15.7357 5.1072e-06 -5.51765e-07 -2.55908 87.7626 1.38731 8.98455 -0.406207 -4.3199e-07 -8.02221 -4.29714 -2.65086 16.3773 -1.3905e-06 -6.99897e-07 -13.6169 -9.94097 -4.73271 6.45672 -1.25837e-06 -1.02172e-07 11.7338 -15.4563 0.13413 12.9942 -0.242716 4.98039 -90.0736 -8.77571 -105.484 5.34809 -7.22636e-06 -6.2814e-07 -56.0884 0.323201 -100.939 24.3286 1.87007e-05 4.90208e-06 2.3307 3.30539 -35.2231 22.2916 -9.88446e-07 4.63217e-06 30.6504 4.93731 8.62384 12.9945 -0.242716 -4.98039 90.6089 -4.73097 -97.662 -5.34813 -1.25947e-06 -3.79883e-06 -66.6925 -22.9506 -89.011 -24.3289 0.000322201 -8.65921e-06 -19.3127 -12.2317 -58.849 -22.2915 -0.000108084 -4.47941e-06 52.1447 5.37656 -2.19399 -2.19248 -6.46944 -1.22534e-07 -161.022 -16.7718 12.7214 39.0811 -6.73843e-06 -1.23785e-05 -0.068603 0.204637 23.8455 40.9854 -6.48686e-06 -1.26872e-05 -17.0523 11.0238 -81.0895 11.7543 -2.30145e-07 3.05095e-06 -0.041691 -0.358123 -18.8976 -2.19251 6.46944 -1.45247e-06 179.485 25.7752 127.218 -39.0811 -0.00228153 -0.0401928 0.122976 -0.111759 52.1451 -40.9854 7.72618e-06 5.99936e-06 -0.3327 -9.39432 -54.3763 -11.7543 -5.6619e-06 -5.58687e-06 -0.339977 0.179347 -16.5757 
